<svg xmlns="http://www.w3.org/2000/svg" xmlns:xlink="http://www.w3.org/1999/xlink" width="450" zoomAndPan="magnify" viewBox="0 0 337.5 74.999997" height="100" preserveAspectRatio="xMidYMid meet" version="1.0"><defs><g/></defs><g fill="#000000" fill-opacity="1"><g transform="translate(152.713152, 29.86736)"><g><path d="M 8.171875 0 L 4.9375 -7.328125 L 4.234375 -6.96875 L 4.234375 0 L 1.125 0 L 1.125 -19.59375 L 7.1875 -19.59375 C 7.882812 -19.59375 8.484375 -19.332031 8.984375 -18.8125 C 9.484375 -18.300781 9.734375 -17.671875 9.734375 -16.921875 L 9.734375 -9.78125 L 7.671875 -8.75 L 11.5625 0 Z M 6.625 -11.703125 L 6.625 -16.640625 L 4.234375 -16.640625 L 4.234375 -10.4375 Z M 6.625 -11.703125 "/></g></g></g><g fill="#000000" fill-opacity="1"><g transform="translate(165.766811, 29.86736)"><g><path d="M 1.125 0 L 1.125 -19.59375 L 4.234375 -19.59375 L 4.234375 0 Z M 1.125 0 "/></g></g></g><g fill="#000000" fill-opacity="1"><g transform="translate(173.323056, 29.86736)"><g><path d="M 1.125 -16.921875 C 1.125 -17.691406 1.375 -18.328125 1.875 -18.828125 C 2.375 -19.335938 2.972656 -19.59375 3.671875 -19.59375 L 7.1875 -19.59375 C 7.882812 -19.59375 8.484375 -19.332031 8.984375 -18.8125 C 9.484375 -18.300781 9.734375 -17.671875 9.734375 -16.921875 L 9.734375 -16.078125 L 6.625 -14.53125 L 6.625 -16.640625 L 4.234375 -16.640625 L 4.234375 -11.421875 L 9.734375 -14.25 L 9.734375 -2.671875 C 9.734375 -1.941406 9.484375 -1.3125 8.984375 -0.78125 C 8.484375 -0.257812 7.882812 0 7.1875 0 L 3.671875 0 C 2.972656 0 2.375 -0.253906 1.875 -0.765625 C 1.375 -1.285156 1.125 -1.921875 1.125 -2.671875 L 1.125 -4.515625 L 4.234375 -6.0625 L 4.234375 -2.96875 L 6.625 -2.96875 L 6.625 -9.171875 L 1.125 -6.34375 Z M 1.125 -16.921875 "/></g></g></g><g fill="#000000" fill-opacity="1"><g transform="translate(186.376716, 29.86736)"><g><path d="M 11.984375 0 L 8.6875 0 L 5.5625 -8.015625 L 4.234375 -5.28125 L 4.234375 0 L 1.125 0 L 1.125 -19.59375 L 4.234375 -19.59375 L 4.234375 -12.1875 L 7.5625 -19.59375 L 10.9375 -19.59375 L 7.25 -11.640625 Z M 11.984375 0 "/></g></g></g><g fill="#000000" fill-opacity="1"><g transform="translate(199.994213, 29.86736)"><g/></g></g><g fill="#000000" fill-opacity="1"><g transform="translate(207.550458, 29.86736)"><g><path d="M 9.734375 -16.921875 L 9.734375 -2.671875 C 9.734375 -1.921875 9.484375 -1.285156 8.984375 -0.765625 C 8.484375 -0.253906 7.882812 0 7.1875 0 L 3.671875 0 C 2.972656 0 2.375 -0.257812 1.875 -0.78125 C 1.375 -1.3125 1.125 -1.941406 1.125 -2.671875 L 1.125 -16.921875 C 1.125 -17.671875 1.375 -18.300781 1.875 -18.8125 C 2.375 -19.332031 2.972656 -19.59375 3.671875 -19.59375 L 7.1875 -19.59375 C 7.882812 -19.59375 8.484375 -19.332031 8.984375 -18.8125 C 9.484375 -18.300781 9.734375 -17.671875 9.734375 -16.921875 Z M 6.625 -2.96875 L 6.625 -16.640625 L 4.234375 -16.640625 L 4.234375 -2.96875 Z M 6.625 -2.96875 "/></g></g></g><g fill="#000000" fill-opacity="1"><g transform="translate(220.604117, 29.86736)"><g><path d="M 6.625 -11.421875 L 6.625 -16.640625 L 4.234375 -16.640625 L 4.234375 -10.15625 Z M 4.234375 0 L 1.125 0 L 1.125 -19.59375 L 7.1875 -19.59375 C 7.882812 -19.59375 8.484375 -19.332031 8.984375 -18.8125 C 9.484375 -18.300781 9.734375 -17.671875 9.734375 -16.921875 L 9.734375 -9.5 L 4.234375 -6.6875 Z M 4.234375 0 "/></g></g></g><g fill="#000000" fill-opacity="1"><g transform="translate(233.375862, 29.86736)"><g><path d="M 3.53125 0 L 3.53125 -16.640625 L 0.421875 -16.640625 L 0.421875 -19.59375 L 9.734375 -19.59375 L 9.734375 -16.640625 L 6.625 -16.640625 L 6.625 0 Z M 3.53125 0 "/></g></g></g><g fill="#000000" fill-opacity="1"><g transform="translate(245.724731, 29.86736)"><g><path d="M 9.734375 -16.921875 L 9.734375 -2.671875 C 9.734375 -1.921875 9.484375 -1.285156 8.984375 -0.765625 C 8.484375 -0.253906 7.882812 0 7.1875 0 L 3.671875 0 C 2.972656 0 2.375 -0.257812 1.875 -0.78125 C 1.375 -1.3125 1.125 -1.941406 1.125 -2.671875 L 1.125 -16.921875 C 1.125 -17.671875 1.375 -18.300781 1.875 -18.8125 C 2.375 -19.332031 2.972656 -19.59375 3.671875 -19.59375 L 7.1875 -19.59375 C 7.882812 -19.59375 8.484375 -19.332031 8.984375 -18.8125 C 9.484375 -18.300781 9.734375 -17.671875 9.734375 -16.921875 Z M 6.625 -2.96875 L 6.625 -16.640625 L 4.234375 -16.640625 L 4.234375 -2.96875 Z M 6.625 -2.96875 "/></g></g></g><g fill="#000000" fill-opacity="1"><g transform="translate(258.778395, 29.86736)"><g><path d="M 8.171875 -18.15625 C 8.285156 -18.40625 8.445312 -18.632812 8.65625 -18.84375 C 9.144531 -19.34375 9.738281 -19.59375 10.4375 -19.59375 L 12.6875 -19.59375 C 13.382812 -19.59375 13.984375 -19.328125 14.484375 -18.796875 C 14.984375 -18.273438 15.234375 -17.648438 15.234375 -16.921875 L 15.234375 0 L 12.125 0 L 12.125 -16.640625 L 9.734375 -16.640625 L 9.734375 0 L 6.625 0 L 6.625 -16.640625 L 4.234375 -16.640625 L 4.234375 0 L 1.125 0 L 1.125 -16.921875 C 1.125 -17.671875 1.375 -18.300781 1.875 -18.8125 C 2.375 -19.332031 2.972656 -19.59375 3.671875 -19.59375 L 5.921875 -19.59375 C 6.617188 -19.59375 7.222656 -19.332031 7.734375 -18.8125 C 7.921875 -18.601562 8.066406 -18.382812 8.171875 -18.15625 Z M 8.171875 -18.15625 "/></g></g></g><g fill="#000000" fill-opacity="1"><g transform="translate(277.329464, 29.86736)"><g><path d="M 8.609375 -16.640625 L 4.234375 -16.640625 L 4.234375 -11.359375 L 8.609375 -13.625 L 8.609375 -10.15625 L 4.234375 -7.890625 L 4.234375 -2.96875 L 8.609375 -2.96875 L 8.609375 0 L 1.125 0 L 1.125 -16.921875 C 1.125 -17.671875 1.375 -18.300781 1.875 -18.8125 C 2.375 -19.332031 2.972656 -19.59375 3.671875 -19.59375 L 8.609375 -19.59375 Z M 8.609375 -16.640625 "/></g></g></g><g fill="#000000" fill-opacity="1"><g transform="translate(288.973537, 29.86736)"><g><path d="M 3.53125 0 L 3.53125 -16.640625 L 0.421875 -16.640625 L 0.421875 -19.59375 L 9.734375 -19.59375 L 9.734375 -16.640625 L 6.625 -16.640625 L 6.625 0 Z M 3.53125 0 "/></g></g></g><g fill="#000000" fill-opacity="1"><g transform="translate(301.322411, 29.86736)"><g><path d="M 8.171875 0 L 4.9375 -7.328125 L 4.234375 -6.96875 L 4.234375 0 L 1.125 0 L 1.125 -19.59375 L 7.1875 -19.59375 C 7.882812 -19.59375 8.484375 -19.332031 8.984375 -18.8125 C 9.484375 -18.300781 9.734375 -17.671875 9.734375 -16.921875 L 9.734375 -9.78125 L 7.671875 -8.75 L 11.5625 0 Z M 6.625 -11.703125 L 6.625 -16.640625 L 4.234375 -16.640625 L 4.234375 -10.4375 Z M 6.625 -11.703125 "/></g></g></g><g fill="#000000" fill-opacity="1"><g transform="translate(314.376065, 29.86736)"><g><path d="M 1.125 0 L 1.125 -19.59375 L 4.234375 -19.59375 L 4.234375 0 Z M 1.125 0 "/></g></g></g><g fill="#000000" fill-opacity="1"><g transform="translate(321.932304, 29.86736)"><g><path d="M 6.625 -5.359375 L 9.734375 -6.90625 L 9.734375 -2.671875 C 9.734375 -1.921875 9.484375 -1.285156 8.984375 -0.765625 C 8.484375 -0.253906 7.882812 0 7.1875 0 L 3.671875 0 C 2.972656 0 2.375 -0.257812 1.875 -0.78125 C 1.375 -1.3125 1.125 -1.941406 1.125 -2.671875 L 1.125 -16.921875 C 1.125 -17.671875 1.375 -18.300781 1.875 -18.8125 C 2.375 -19.332031 2.972656 -19.59375 3.671875 -19.59375 L 7.1875 -19.59375 C 7.882812 -19.59375 8.484375 -19.332031 8.984375 -18.8125 C 9.484375 -18.300781 9.734375 -17.671875 9.734375 -16.921875 L 9.734375 -15.234375 L 6.625 -13.671875 L 6.625 -16.640625 L 4.234375 -16.640625 L 4.234375 -2.96875 L 6.625 -2.96875 Z M 6.625 -5.359375 "/></g></g></g><g fill="#000000" fill-opacity="1"><g transform="translate(334.702957, 29.86736)"><g/></g></g><g fill="#000000" fill-opacity="1"><g transform="translate(152.713152, 58.809254)"><g><path d="M 1.125 0 L 1.125 -16.921875 C 1.125 -17.671875 1.375 -18.300781 1.875 -18.8125 C 2.375 -19.332031 2.972656 -19.59375 3.671875 -19.59375 L 7.1875 -19.59375 C 7.882812 -19.59375 8.484375 -19.332031 8.984375 -18.8125 C 9.484375 -18.300781 9.734375 -17.671875 9.734375 -16.921875 L 9.734375 0 L 6.625 0 L 6.625 -8.3125 L 4.234375 -7.046875 L 4.234375 0 Z M 4.234375 -10.515625 L 6.625 -11.78125 L 6.625 -16.640625 L 4.234375 -16.640625 Z M 4.234375 -10.515625 "/></g></g></g><g fill="#000000" fill-opacity="1"><g transform="translate(165.766811, 58.809254)"><g><path d="M 1.125 -16.921875 C 1.125 -17.691406 1.375 -18.328125 1.875 -18.828125 C 2.375 -19.335938 2.972656 -19.59375 3.671875 -19.59375 L 7.1875 -19.59375 C 7.882812 -19.59375 8.484375 -19.332031 8.984375 -18.8125 C 9.484375 -18.300781 9.734375 -17.671875 9.734375 -16.921875 L 9.734375 -16.078125 L 6.625 -14.53125 L 6.625 -16.640625 L 4.234375 -16.640625 L 4.234375 -11.421875 L 9.734375 -14.25 L 9.734375 -2.671875 C 9.734375 -1.941406 9.484375 -1.3125 8.984375 -0.78125 C 8.484375 -0.257812 7.882812 0 7.1875 0 L 3.671875 0 C 2.972656 0 2.375 -0.253906 1.875 -0.765625 C 1.375 -1.285156 1.125 -1.921875 1.125 -2.671875 L 1.125 -4.515625 L 4.234375 -6.0625 L 4.234375 -2.96875 L 6.625 -2.96875 L 6.625 -9.171875 L 1.125 -6.34375 Z M 1.125 -16.921875 "/></g></g></g><g fill="#000000" fill-opacity="1"><g transform="translate(178.820471, 58.809254)"><g><path d="M 1.125 -16.921875 C 1.125 -17.691406 1.375 -18.328125 1.875 -18.828125 C 2.375 -19.335938 2.972656 -19.59375 3.671875 -19.59375 L 7.1875 -19.59375 C 7.882812 -19.59375 8.484375 -19.332031 8.984375 -18.8125 C 9.484375 -18.300781 9.734375 -17.671875 9.734375 -16.921875 L 9.734375 -16.078125 L 6.625 -14.53125 L 6.625 -16.640625 L 4.234375 -16.640625 L 4.234375 -11.421875 L 9.734375 -14.25 L 9.734375 -2.671875 C 9.734375 -1.941406 9.484375 -1.3125 8.984375 -0.78125 C 8.484375 -0.257812 7.882812 0 7.1875 0 L 3.671875 0 C 2.972656 0 2.375 -0.253906 1.875 -0.765625 C 1.375 -1.285156 1.125 -1.921875 1.125 -2.671875 L 1.125 -4.515625 L 4.234375 -6.0625 L 4.234375 -2.96875 L 6.625 -2.96875 L 6.625 -9.171875 L 1.125 -6.34375 Z M 1.125 -16.921875 "/></g></g></g><g fill="#000000" fill-opacity="1"><g transform="translate(191.874131, 58.809254)"><g><path d="M 9.734375 -16.921875 L 9.734375 -2.671875 C 9.734375 -1.921875 9.484375 -1.285156 8.984375 -0.765625 C 8.484375 -0.253906 7.882812 0 7.1875 0 L 3.671875 0 C 2.972656 0 2.375 -0.257812 1.875 -0.78125 C 1.375 -1.3125 1.125 -1.941406 1.125 -2.671875 L 1.125 -16.921875 C 1.125 -17.671875 1.375 -18.300781 1.875 -18.8125 C 2.375 -19.332031 2.972656 -19.59375 3.671875 -19.59375 L 7.1875 -19.59375 C 7.882812 -19.59375 8.484375 -19.332031 8.984375 -18.8125 C 9.484375 -18.300781 9.734375 -17.671875 9.734375 -16.921875 Z M 6.625 -2.96875 L 6.625 -16.640625 L 4.234375 -16.640625 L 4.234375 -2.96875 Z M 6.625 -2.96875 "/></g></g></g><g fill="#000000" fill-opacity="1"><g transform="translate(204.92779, 58.809254)"><g><path d="M 6.625 -5.359375 L 9.734375 -6.90625 L 9.734375 -2.671875 C 9.734375 -1.921875 9.484375 -1.285156 8.984375 -0.765625 C 8.484375 -0.253906 7.882812 0 7.1875 0 L 3.671875 0 C 2.972656 0 2.375 -0.257812 1.875 -0.78125 C 1.375 -1.3125 1.125 -1.941406 1.125 -2.671875 L 1.125 -16.921875 C 1.125 -17.671875 1.375 -18.300781 1.875 -18.8125 C 2.375 -19.332031 2.972656 -19.59375 3.671875 -19.59375 L 7.1875 -19.59375 C 7.882812 -19.59375 8.484375 -19.332031 8.984375 -18.8125 C 9.484375 -18.300781 9.734375 -17.671875 9.734375 -16.921875 L 9.734375 -15.234375 L 6.625 -13.671875 L 6.625 -16.640625 L 4.234375 -16.640625 L 4.234375 -2.96875 L 6.625 -2.96875 Z M 6.625 -5.359375 "/></g></g></g><g fill="#000000" fill-opacity="1"><g transform="translate(217.699535, 58.809254)"><g><path d="M 1.125 0 L 1.125 -19.59375 L 4.234375 -19.59375 L 4.234375 0 Z M 1.125 0 "/></g></g></g><g fill="#000000" fill-opacity="1"><g transform="translate(225.25578, 58.809254)"><g><path d="M 1.125 0 L 1.125 -16.921875 C 1.125 -17.671875 1.375 -18.300781 1.875 -18.8125 C 2.375 -19.332031 2.972656 -19.59375 3.671875 -19.59375 L 7.1875 -19.59375 C 7.882812 -19.59375 8.484375 -19.332031 8.984375 -18.8125 C 9.484375 -18.300781 9.734375 -17.671875 9.734375 -16.921875 L 9.734375 0 L 6.625 0 L 6.625 -8.3125 L 4.234375 -7.046875 L 4.234375 0 Z M 4.234375 -10.515625 L 6.625 -11.78125 L 6.625 -16.640625 L 4.234375 -16.640625 Z M 4.234375 -10.515625 "/></g></g></g><g fill="#000000" fill-opacity="1"><g transform="translate(238.309439, 58.809254)"><g><path d="M 3.53125 0 L 3.53125 -16.640625 L 0.421875 -16.640625 L 0.421875 -19.59375 L 9.734375 -19.59375 L 9.734375 -16.640625 L 6.625 -16.640625 L 6.625 0 Z M 3.53125 0 "/></g></g></g><g fill="#000000" fill-opacity="1"><g transform="translate(250.658308, 58.809254)"><g><path d="M 8.609375 -16.640625 L 4.234375 -16.640625 L 4.234375 -11.359375 L 8.609375 -13.625 L 8.609375 -10.15625 L 4.234375 -7.890625 L 4.234375 -2.96875 L 8.609375 -2.96875 L 8.609375 0 L 1.125 0 L 1.125 -16.921875 C 1.125 -17.671875 1.375 -18.300781 1.875 -18.8125 C 2.375 -19.332031 2.972656 -19.59375 3.671875 -19.59375 L 8.609375 -19.59375 Z M 8.609375 -16.640625 "/></g></g></g><g fill="#000000" fill-opacity="1"><g transform="translate(262.302381, 58.809254)"><g><path d="M 1.125 -16.921875 C 1.125 -17.691406 1.375 -18.328125 1.875 -18.828125 C 2.375 -19.335938 2.972656 -19.59375 3.671875 -19.59375 L 7.1875 -19.59375 C 7.882812 -19.59375 8.484375 -19.332031 8.984375 -18.8125 C 9.484375 -18.300781 9.734375 -17.671875 9.734375 -16.921875 L 9.734375 -16.078125 L 6.625 -14.53125 L 6.625 -16.640625 L 4.234375 -16.640625 L 4.234375 -11.421875 L 9.734375 -14.25 L 9.734375 -2.671875 C 9.734375 -1.941406 9.484375 -1.3125 8.984375 -0.78125 C 8.484375 -0.257812 7.882812 0 7.1875 0 L 3.671875 0 C 2.972656 0 2.375 -0.253906 1.875 -0.765625 C 1.375 -1.285156 1.125 -1.921875 1.125 -2.671875 L 1.125 -4.515625 L 4.234375 -6.0625 L 4.234375 -2.96875 L 6.625 -2.96875 L 6.625 -9.171875 L 1.125 -6.34375 Z M 1.125 -16.921875 "/></g></g></g><path fill="#000000" d="M 61.316406 8.339844 C 55.878906 8.84375 47.25 10.378906 43.4375 11.5625 C 42.699219 11.800781 41.3125 12.183594 40.335938 12.480469 C 33.304688 14.488281 24.171875 18.65625 18.46875 22.464844 C 12.765625 26.25 7.238281 31.214844 4.757812 34.730469 C 3.960938 35.882812 4.167969 36.324219 5.113281 35.46875 C 6.265625 34.40625 11.878906 30.800781 14.183594 29.648438 C 15.394531 29.054688 16.605469 28.4375 16.84375 28.289062 C 18.941406 26.929688 27.273438 23.617188 32.0625 22.230469 C 33.035156 21.933594 34.367188 21.519531 35.015625 21.34375 C 35.667969 21.136719 36.671875 20.839844 37.234375 20.664062 C 41.015625 19.511719 49.171875 18.003906 55.703125 17.234375 C 62.527344 16.410156 65.421875 16.171875 65.691406 16.4375 C 65.984375 16.734375 65.421875 17.945312 65.011719 17.945312 C 64.863281 17.945312 64.183594 18.328125 63.472656 18.800781 C 60.519531 20.8125 58.066406 24.238281 57 27.785156 C 56.527344 29.410156 56.441406 30.386719 56.527344 32.808594 C 56.707031 37.773438 57.800781 40.285156 61.167969 43.652344 C 63.710938 46.226562 65.394531 47.199219 68.675781 48.058594 C 78.101562 50.507812 86.964844 45.398438 89.390625 36.117188 C 90.335938 32.453125 89.65625 27.667969 87.703125 24.152344 C 86.671875 22.289062 83.714844 19.246094 82.058594 18.390625 C 80.9375 17.796875 80.40625 16.910156 80.878906 16.4375 C 81.027344 16.289062 81.882812 16.289062 82.886719 16.46875 C 83.863281 16.617188 85.605469 16.761719 86.730469 16.761719 C 87.882812 16.792969 89.390625 16.910156 90.128906 17.058594 C 90.867188 17.234375 92.726562 17.472656 94.265625 17.648438 C 97.542969 18.003906 101.238281 18.59375 104.164062 19.246094 C 105.316406 19.511719 106.851562 19.867188 107.652344 20.015625 C 108.417969 20.160156 109.277344 20.425781 109.570312 20.546875 C 109.835938 20.695312 110.574219 20.929688 111.226562 21.019531 C 111.847656 21.136719 112.585938 21.34375 112.851562 21.460938 C 113.117188 21.609375 114.121094 21.933594 115.097656 22.230469 C 117.578125 22.96875 120.296875 23.824219 121.007812 24.121094 C 121.332031 24.238281 122.101562 24.59375 122.722656 24.859375 C 123.339844 25.125 123.960938 25.332031 124.109375 25.332031 C 124.375 25.332031 127.65625 26.75 128.839844 27.371094 C 135.753906 31.007812 140.15625 33.667969 142.164062 35.410156 C 144.589844 37.507812 143.9375 36.179688 140.746094 32.542969 C 135.902344 26.957031 130.375 22.851562 122.277344 18.742188 C 116.839844 15.964844 115.097656 15.226562 110.074219 13.542969 C 102.273438 10.914062 100.5 10.5 90.867188 8.960938 C 84.160156 7.867188 69.738281 7.601562 61.316406 8.339844 Z M 82.386719 22.082031 C 82.738281 22.554688 83.035156 23.085938 83.035156 23.265625 C 83.035156 23.414062 83.359375 23.558594 83.746094 23.558594 C 84.925781 23.558594 85.992188 24.09375 85.992188 24.683594 C 85.992188 24.976562 85.578125 25.597656 85.105469 26.070312 C 84.277344 26.871094 84.21875 27.046875 84.394531 28.347656 C 84.632812 30 84.097656 30.445312 82.886719 29.648438 C 81.972656 29.054688 81.175781 29.054688 80.050781 29.648438 C 78.632812 30.355469 78.1875 30.03125 78.425781 28.40625 C 78.601562 27.136719 78.515625 26.957031 77.539062 25.863281 C 76.296875 24.476562 76.503906 23.972656 78.484375 23.679688 C 79.609375 23.53125 79.875 23.324219 80.433594 22.347656 C 80.789062 21.699219 81.234375 21.195312 81.410156 21.195312 C 81.585938 21.195312 82.03125 21.582031 82.386719 22.082031 Z M 82.386719 22.082031 " fill-opacity="1" fill-rule="nonzero"/><path fill="#000000" d="M 16.785156 33.222656 C 17.316406 34.550781 20.300781 38.511719 22.488281 40.816406 C 32.859375 51.75 46.453125 58.074219 64.417969 60.351562 C 72.515625 61.355469 82.679688 60.675781 91.902344 58.457031 C 95.210938 57.691406 101.121094 55.710938 103.039062 54.765625 C 103.898438 54.351562 104.726562 53.996094 104.902344 53.996094 C 105.050781 53.996094 105.847656 53.613281 106.675781 53.109375 C 107.503906 52.636719 108.269531 52.222656 108.359375 52.222656 C 108.714844 52.222656 114.535156 48.558594 116.277344 47.230469 C 120.742188 43.832031 124.9375 39.488281 127.625 35.46875 C 129.546875 32.542969 129.429688 32.453125 126.738281 34.757812 C 119.234375 41.261719 107.796875 46.875 96.480469 49.5625 C 89.59375 51.1875 87.410156 51.574219 81.46875 52.074219 C 68.675781 53.226562 57.089844 52.046875 44.769531 48.324219 C 41.546875 47.347656 40.898438 47.140625 37.378906 45.722656 C 29.964844 42.707031 20.566406 36.828125 17.464844 33.222656 C 17.199219 32.957031 16.902344 32.71875 16.785156 32.71875 C 16.667969 32.71875 16.667969 32.957031 16.785156 33.222656 Z M 16.785156 33.222656 " fill-opacity="1" fill-rule="nonzero"/></svg>