<svg xmlns="http://www.w3.org/2000/svg" xmlns:xlink="http://www.w3.org/1999/xlink" width="500" zoomAndPan="magnify" viewBox="0 0 375 74.999997" height="100" preserveAspectRatio="xMidYMid meet" version="1.0"><defs><g/></defs><g fill="#000000" fill-opacity="1"><g transform="translate(146.876494, 33.360456)"><g><path d="M 7.3125 -5.828125 L 4.703125 -5.828125 L 4.703125 0 L 1.421875 0 L 1.421875 -15.90625 L 7.328125 -15.90625 C 9.210938 -15.90625 10.660156 -15.484375 11.671875 -14.640625 C 12.691406 -13.804688 13.203125 -12.625 13.203125 -11.09375 C 13.203125 -10.007812 12.96875 -9.101562 12.5 -8.375 C 12.03125 -7.65625 11.320312 -7.082031 10.375 -6.65625 L 13.8125 -0.15625 L 13.8125 0 L 10.296875 0 Z M 4.703125 -8.484375 L 7.34375 -8.484375 C 8.164062 -8.484375 8.800781 -8.691406 9.25 -9.109375 C 9.707031 -9.523438 9.9375 -10.101562 9.9375 -10.84375 C 9.9375 -11.59375 9.722656 -12.179688 9.296875 -12.609375 C 8.867188 -13.035156 8.210938 -13.25 7.328125 -13.25 L 4.703125 -13.25 Z M 4.703125 -8.484375 "/></g></g></g><g fill="#000000" fill-opacity="1"><g transform="translate(162.898313, 33.360456)"><g><path d="M 4.90625 0 L 1.625 0 L 1.625 -15.90625 L 4.90625 -15.90625 Z M 4.90625 0 "/></g></g></g><g fill="#000000" fill-opacity="1"><g transform="translate(171.164727, 33.360456)"><g><path d="M 9.671875 -4.171875 C 9.671875 -4.796875 9.453125 -5.269531 9.015625 -5.59375 C 8.578125 -5.925781 7.789062 -6.273438 6.65625 -6.640625 C 5.519531 -7.015625 4.617188 -7.378906 3.953125 -7.734375 C 2.148438 -8.710938 1.25 -10.023438 1.25 -11.671875 C 1.25 -12.535156 1.488281 -13.300781 1.96875 -13.96875 C 2.457031 -14.644531 3.15625 -15.171875 4.0625 -15.546875 C 4.96875 -15.929688 5.984375 -16.125 7.109375 -16.125 C 8.242188 -16.125 9.253906 -15.914062 10.140625 -15.5 C 11.035156 -15.09375 11.726562 -14.515625 12.21875 -13.765625 C 12.707031 -13.015625 12.953125 -12.160156 12.953125 -11.203125 L 9.6875 -11.203125 C 9.6875 -11.929688 9.453125 -12.5 8.984375 -12.90625 C 8.523438 -13.3125 7.882812 -13.515625 7.0625 -13.515625 C 6.257812 -13.515625 5.632812 -13.34375 5.1875 -13 C 4.738281 -12.664062 4.515625 -12.222656 4.515625 -11.671875 C 4.515625 -11.148438 4.773438 -10.710938 5.296875 -10.359375 C 5.816406 -10.015625 6.585938 -9.691406 7.609375 -9.390625 C 9.472656 -8.828125 10.828125 -8.128906 11.671875 -7.296875 C 12.523438 -6.460938 12.953125 -5.429688 12.953125 -4.203125 C 12.953125 -2.816406 12.429688 -1.734375 11.390625 -0.953125 C 10.347656 -0.171875 8.945312 0.21875 7.1875 0.21875 C 5.96875 0.21875 4.851562 -0.00390625 3.84375 -0.453125 C 2.84375 -0.898438 2.078125 -1.515625 1.546875 -2.296875 C 1.015625 -3.078125 0.75 -3.976562 0.75 -5 L 4.046875 -5 C 4.046875 -3.25 5.09375 -2.375 7.1875 -2.375 C 7.96875 -2.375 8.578125 -2.53125 9.015625 -2.84375 C 9.453125 -3.164062 9.671875 -3.609375 9.671875 -4.171875 Z M 9.671875 -4.171875 "/></g></g></g><g fill="#000000" fill-opacity="1"><g transform="translate(186.662237, 33.360456)"><g><path d="M 6.40625 -6.375 L 4.703125 -4.546875 L 4.703125 0 L 1.421875 0 L 1.421875 -15.90625 L 4.703125 -15.90625 L 4.703125 -8.703125 L 6.140625 -10.671875 L 10.1875 -15.90625 L 14.21875 -15.90625 L 8.578125 -8.84375 L 14.390625 0 L 10.484375 0 Z M 6.40625 -6.375 "/></g></g></g><g fill="#000000" fill-opacity="1"><g transform="translate(202.607592, 33.360456)"><g/></g></g><g fill="#000000" fill-opacity="1"><g transform="translate(209.923694, 33.360456)"><g><path d="M 14.484375 -7.59375 C 14.484375 -6.03125 14.207031 -4.65625 13.65625 -3.46875 C 13.101562 -2.289062 12.3125 -1.378906 11.28125 -0.734375 C 10.25 -0.0976562 9.066406 0.21875 7.734375 0.21875 C 6.410156 0.21875 5.234375 -0.0976562 4.203125 -0.734375 C 3.171875 -1.367188 2.367188 -2.273438 1.796875 -3.453125 C 1.234375 -4.628906 0.945312 -5.976562 0.9375 -7.5 L 0.9375 -8.296875 C 0.9375 -9.859375 1.21875 -11.234375 1.78125 -12.421875 C 2.351562 -13.617188 3.148438 -14.535156 4.171875 -15.171875 C 5.203125 -15.804688 6.378906 -16.125 7.703125 -16.125 C 9.035156 -16.125 10.21875 -15.804688 11.25 -15.171875 C 12.28125 -14.535156 13.078125 -13.617188 13.640625 -12.421875 C 14.203125 -11.234375 14.484375 -9.859375 14.484375 -8.296875 Z M 11.171875 -8.3125 C 11.171875 -9.976562 10.867188 -11.242188 10.265625 -12.109375 C 9.671875 -12.984375 8.820312 -13.421875 7.71875 -13.421875 C 6.613281 -13.421875 5.757812 -12.988281 5.15625 -12.125 C 4.5625 -11.269531 4.265625 -10.019531 4.265625 -8.375 L 4.265625 -7.59375 C 4.265625 -5.96875 4.5625 -4.707031 5.15625 -3.8125 C 5.75 -2.914062 6.609375 -2.46875 7.734375 -2.46875 C 8.835938 -2.46875 9.679688 -2.898438 10.265625 -3.765625 C 10.859375 -4.628906 11.160156 -5.882812 11.171875 -7.53125 Z M 11.171875 -8.3125 "/></g></g></g><g fill="#000000" fill-opacity="1"><g transform="translate(227.114283, 33.360456)"><g><path d="M 4.703125 -5.609375 L 4.703125 0 L 1.421875 0 L 1.421875 -15.90625 L 7.625 -15.90625 C 8.820312 -15.90625 9.875 -15.6875 10.78125 -15.25 C 11.6875 -14.8125 12.382812 -14.191406 12.875 -13.390625 C 13.363281 -12.585938 13.609375 -11.671875 13.609375 -10.640625 C 13.609375 -9.078125 13.070312 -7.847656 12 -6.953125 C 10.9375 -6.054688 9.460938 -5.609375 7.578125 -5.609375 Z M 4.703125 -8.265625 L 7.625 -8.265625 C 8.488281 -8.265625 9.148438 -8.46875 9.609375 -8.875 C 10.066406 -9.28125 10.296875 -9.863281 10.296875 -10.625 C 10.296875 -11.394531 10.066406 -12.019531 9.609375 -12.5 C 9.148438 -12.988281 8.515625 -13.238281 7.703125 -13.25 L 4.703125 -13.25 Z M 4.703125 -8.265625 "/></g></g></g><g fill="#000000" fill-opacity="1"><g transform="translate(243.289024, 33.360456)"><g><path d="M 13.390625 -13.25 L 8.515625 -13.25 L 8.515625 0 L 5.25 0 L 5.25 -13.25 L 0.4375 -13.25 L 0.4375 -15.90625 L 13.390625 -15.90625 Z M 13.390625 -13.25 "/></g></g></g><g fill="#000000" fill-opacity="1"><g transform="translate(258.873923, 33.360456)"><g><path d="M 14.484375 -7.59375 C 14.484375 -6.03125 14.207031 -4.65625 13.65625 -3.46875 C 13.101562 -2.289062 12.3125 -1.378906 11.28125 -0.734375 C 10.25 -0.0976562 9.066406 0.21875 7.734375 0.21875 C 6.410156 0.21875 5.234375 -0.0976562 4.203125 -0.734375 C 3.171875 -1.367188 2.367188 -2.273438 1.796875 -3.453125 C 1.234375 -4.628906 0.945312 -5.976562 0.9375 -7.5 L 0.9375 -8.296875 C 0.9375 -9.859375 1.21875 -11.234375 1.78125 -12.421875 C 2.351562 -13.617188 3.148438 -14.535156 4.171875 -15.171875 C 5.203125 -15.804688 6.378906 -16.125 7.703125 -16.125 C 9.035156 -16.125 10.21875 -15.804688 11.25 -15.171875 C 12.28125 -14.535156 13.078125 -13.617188 13.640625 -12.421875 C 14.203125 -11.234375 14.484375 -9.859375 14.484375 -8.296875 Z M 11.171875 -8.3125 C 11.171875 -9.976562 10.867188 -11.242188 10.265625 -12.109375 C 9.671875 -12.984375 8.820312 -13.421875 7.71875 -13.421875 C 6.613281 -13.421875 5.757812 -12.988281 5.15625 -12.125 C 4.5625 -11.269531 4.265625 -10.019531 4.265625 -8.375 L 4.265625 -7.59375 C 4.265625 -5.96875 4.5625 -4.707031 5.15625 -3.8125 C 5.75 -2.914062 6.609375 -2.46875 7.734375 -2.46875 C 8.835938 -2.46875 9.679688 -2.898438 10.265625 -3.765625 C 10.859375 -4.628906 11.160156 -5.882812 11.171875 -7.53125 Z M 11.171875 -8.3125 "/></g></g></g><g fill="#000000" fill-opacity="1"><g transform="translate(276.064519, 33.360456)"><g><path d="M 5.703125 -15.90625 L 9.796875 -4.375 L 13.859375 -15.90625 L 18.15625 -15.90625 L 18.15625 0 L 14.875 0 L 14.875 -4.34375 L 15.203125 -11.859375 L 10.90625 0 L 8.65625 0 L 4.375 -11.84375 L 4.703125 -4.34375 L 4.703125 0 L 1.421875 0 L 1.421875 -15.90625 Z M 5.703125 -15.90625 "/></g></g></g><g fill="#000000" fill-opacity="1"><g transform="translate(297.405894, 33.360456)"><g><path d="M 10.984375 -6.890625 L 4.703125 -6.890625 L 4.703125 -2.640625 L 12.078125 -2.640625 L 12.078125 0 L 1.421875 0 L 1.421875 -15.90625 L 12.0625 -15.90625 L 12.0625 -13.25 L 4.703125 -13.25 L 4.703125 -9.46875 L 10.984375 -9.46875 Z M 10.984375 -6.890625 "/></g></g></g><g fill="#000000" fill-opacity="1"><g transform="translate(311.734637, 33.360456)"><g><path d="M 13.390625 -13.25 L 8.515625 -13.25 L 8.515625 0 L 5.25 0 L 5.25 -13.25 L 0.4375 -13.25 L 0.4375 -15.90625 L 13.390625 -15.90625 Z M 13.390625 -13.25 "/></g></g></g><g fill="#000000" fill-opacity="1"><g transform="translate(327.319536, 33.360456)"><g><path d="M 7.3125 -5.828125 L 4.703125 -5.828125 L 4.703125 0 L 1.421875 0 L 1.421875 -15.90625 L 7.328125 -15.90625 C 9.210938 -15.90625 10.660156 -15.484375 11.671875 -14.640625 C 12.691406 -13.804688 13.203125 -12.625 13.203125 -11.09375 C 13.203125 -10.007812 12.96875 -9.101562 12.5 -8.375 C 12.03125 -7.65625 11.320312 -7.082031 10.375 -6.65625 L 13.8125 -0.15625 L 13.8125 0 L 10.296875 0 Z M 4.703125 -8.484375 L 7.34375 -8.484375 C 8.164062 -8.484375 8.800781 -8.691406 9.25 -9.109375 C 9.707031 -9.523438 9.9375 -10.101562 9.9375 -10.84375 C 9.9375 -11.59375 9.722656 -12.179688 9.296875 -12.609375 C 8.867188 -13.035156 8.210938 -13.25 7.328125 -13.25 L 4.703125 -13.25 Z M 4.703125 -8.484375 "/></g></g></g><g fill="#000000" fill-opacity="1"><g transform="translate(343.341359, 33.360456)"><g><path d="M 4.90625 0 L 1.625 0 L 1.625 -15.90625 L 4.90625 -15.90625 Z M 4.90625 0 "/></g></g></g><g fill="#000000" fill-opacity="1"><g transform="translate(351.607778, 33.360456)"><g><path d="M 13.90625 -5.296875 C 13.78125 -3.585938 13.144531 -2.238281 12 -1.25 C 10.863281 -0.269531 9.363281 0.21875 7.5 0.21875 C 5.46875 0.21875 3.863281 -0.46875 2.6875 -1.84375 C 1.519531 -3.21875 0.9375 -5.101562 0.9375 -7.5 L 0.9375 -8.46875 C 0.9375 -10 1.207031 -11.34375 1.75 -12.5 C 2.289062 -13.664062 3.0625 -14.5625 4.0625 -15.1875 C 5.0625 -15.8125 6.222656 -16.125 7.546875 -16.125 C 9.378906 -16.125 10.859375 -15.628906 11.984375 -14.640625 C 13.109375 -13.660156 13.757812 -12.285156 13.9375 -10.515625 L 10.65625 -10.515625 C 10.570312 -11.535156 10.285156 -12.273438 9.796875 -12.734375 C 9.304688 -13.203125 8.554688 -13.4375 7.546875 -13.4375 C 6.453125 -13.4375 5.632812 -13.046875 5.09375 -12.265625 C 4.550781 -11.484375 4.273438 -10.269531 4.265625 -8.625 L 4.265625 -7.421875 C 4.265625 -5.703125 4.523438 -4.441406 5.046875 -3.640625 C 5.566406 -2.847656 6.382812 -2.453125 7.5 -2.453125 C 8.519531 -2.453125 9.273438 -2.679688 9.765625 -3.140625 C 10.265625 -3.609375 10.550781 -4.328125 10.625 -5.296875 Z M 13.90625 -5.296875 "/></g></g></g><g fill="#000000" fill-opacity="1"><g transform="translate(367.982294, 33.360456)"><g/></g></g><g fill="#000000" fill-opacity="1"><g transform="translate(146.876494, 56.046053)"><g><path d="M 10.40625 -3.28125 L 4.65625 -3.28125 L 3.5625 0 L 0.078125 0 L 6 -15.90625 L 9.03125 -15.90625 L 14.984375 0 L 11.5 0 Z M 5.546875 -5.9375 L 9.515625 -5.9375 L 7.515625 -11.890625 Z M 5.546875 -5.9375 "/></g></g></g><g fill="#000000" fill-opacity="1"><g transform="translate(163.673853, 56.046053)"><g><path d="M 9.671875 -4.171875 C 9.671875 -4.796875 9.453125 -5.269531 9.015625 -5.59375 C 8.578125 -5.925781 7.789062 -6.273438 6.65625 -6.640625 C 5.519531 -7.015625 4.617188 -7.378906 3.953125 -7.734375 C 2.148438 -8.710938 1.25 -10.023438 1.25 -11.671875 C 1.25 -12.535156 1.488281 -13.300781 1.96875 -13.96875 C 2.457031 -14.644531 3.15625 -15.171875 4.0625 -15.546875 C 4.96875 -15.929688 5.984375 -16.125 7.109375 -16.125 C 8.242188 -16.125 9.253906 -15.914062 10.140625 -15.5 C 11.035156 -15.09375 11.726562 -14.515625 12.21875 -13.765625 C 12.707031 -13.015625 12.953125 -12.160156 12.953125 -11.203125 L 9.6875 -11.203125 C 9.6875 -11.929688 9.453125 -12.5 8.984375 -12.90625 C 8.523438 -13.3125 7.882812 -13.515625 7.0625 -13.515625 C 6.257812 -13.515625 5.632812 -13.34375 5.1875 -13 C 4.738281 -12.664062 4.515625 -12.222656 4.515625 -11.671875 C 4.515625 -11.148438 4.773438 -10.710938 5.296875 -10.359375 C 5.816406 -10.015625 6.585938 -9.691406 7.609375 -9.390625 C 9.472656 -8.828125 10.828125 -8.128906 11.671875 -7.296875 C 12.523438 -6.460938 12.953125 -5.429688 12.953125 -4.203125 C 12.953125 -2.816406 12.429688 -1.734375 11.390625 -0.953125 C 10.347656 -0.171875 8.945312 0.21875 7.1875 0.21875 C 5.96875 0.21875 4.851562 -0.00390625 3.84375 -0.453125 C 2.84375 -0.898438 2.078125 -1.515625 1.546875 -2.296875 C 1.015625 -3.078125 0.75 -3.976562 0.75 -5 L 4.046875 -5 C 4.046875 -3.25 5.09375 -2.375 7.1875 -2.375 C 7.96875 -2.375 8.578125 -2.53125 9.015625 -2.84375 C 9.453125 -3.164062 9.671875 -3.609375 9.671875 -4.171875 Z M 9.671875 -4.171875 "/></g></g></g><g fill="#000000" fill-opacity="1"><g transform="translate(179.171362, 56.046053)"><g><path d="M 9.671875 -4.171875 C 9.671875 -4.796875 9.453125 -5.269531 9.015625 -5.59375 C 8.578125 -5.925781 7.789062 -6.273438 6.65625 -6.640625 C 5.519531 -7.015625 4.617188 -7.378906 3.953125 -7.734375 C 2.148438 -8.710938 1.25 -10.023438 1.25 -11.671875 C 1.25 -12.535156 1.488281 -13.300781 1.96875 -13.96875 C 2.457031 -14.644531 3.15625 -15.171875 4.0625 -15.546875 C 4.96875 -15.929688 5.984375 -16.125 7.109375 -16.125 C 8.242188 -16.125 9.253906 -15.914062 10.140625 -15.5 C 11.035156 -15.09375 11.726562 -14.515625 12.21875 -13.765625 C 12.707031 -13.015625 12.953125 -12.160156 12.953125 -11.203125 L 9.6875 -11.203125 C 9.6875 -11.929688 9.453125 -12.5 8.984375 -12.90625 C 8.523438 -13.3125 7.882812 -13.515625 7.0625 -13.515625 C 6.257812 -13.515625 5.632812 -13.34375 5.1875 -13 C 4.738281 -12.664062 4.515625 -12.222656 4.515625 -11.671875 C 4.515625 -11.148438 4.773438 -10.710938 5.296875 -10.359375 C 5.816406 -10.015625 6.585938 -9.691406 7.609375 -9.390625 C 9.472656 -8.828125 10.828125 -8.128906 11.671875 -7.296875 C 12.523438 -6.460938 12.953125 -5.429688 12.953125 -4.203125 C 12.953125 -2.816406 12.429688 -1.734375 11.390625 -0.953125 C 10.347656 -0.171875 8.945312 0.21875 7.1875 0.21875 C 5.96875 0.21875 4.851562 -0.00390625 3.84375 -0.453125 C 2.84375 -0.898438 2.078125 -1.515625 1.546875 -2.296875 C 1.015625 -3.078125 0.75 -3.976562 0.75 -5 L 4.046875 -5 C 4.046875 -3.25 5.09375 -2.375 7.1875 -2.375 C 7.96875 -2.375 8.578125 -2.53125 9.015625 -2.84375 C 9.453125 -3.164062 9.671875 -3.609375 9.671875 -4.171875 Z M 9.671875 -4.171875 "/></g></g></g><g fill="#000000" fill-opacity="1"><g transform="translate(194.668873, 56.046053)"><g><path d="M 14.484375 -7.59375 C 14.484375 -6.03125 14.207031 -4.65625 13.65625 -3.46875 C 13.101562 -2.289062 12.3125 -1.378906 11.28125 -0.734375 C 10.25 -0.0976562 9.066406 0.21875 7.734375 0.21875 C 6.410156 0.21875 5.234375 -0.0976562 4.203125 -0.734375 C 3.171875 -1.367188 2.367188 -2.273438 1.796875 -3.453125 C 1.234375 -4.628906 0.945312 -5.976562 0.9375 -7.5 L 0.9375 -8.296875 C 0.9375 -9.859375 1.21875 -11.234375 1.78125 -12.421875 C 2.351562 -13.617188 3.148438 -14.535156 4.171875 -15.171875 C 5.203125 -15.804688 6.378906 -16.125 7.703125 -16.125 C 9.035156 -16.125 10.21875 -15.804688 11.25 -15.171875 C 12.28125 -14.535156 13.078125 -13.617188 13.640625 -12.421875 C 14.203125 -11.234375 14.484375 -9.859375 14.484375 -8.296875 Z M 11.171875 -8.3125 C 11.171875 -9.976562 10.867188 -11.242188 10.265625 -12.109375 C 9.671875 -12.984375 8.820312 -13.421875 7.71875 -13.421875 C 6.613281 -13.421875 5.757812 -12.988281 5.15625 -12.125 C 4.5625 -11.269531 4.265625 -10.019531 4.265625 -8.375 L 4.265625 -7.59375 C 4.265625 -5.96875 4.5625 -4.707031 5.15625 -3.8125 C 5.75 -2.914062 6.609375 -2.46875 7.734375 -2.46875 C 8.835938 -2.46875 9.679688 -2.898438 10.265625 -3.765625 C 10.859375 -4.628906 11.160156 -5.882812 11.171875 -7.53125 Z M 11.171875 -8.3125 "/></g></g></g><g fill="#000000" fill-opacity="1"><g transform="translate(211.859462, 56.046053)"><g><path d="M 13.90625 -5.296875 C 13.78125 -3.585938 13.144531 -2.238281 12 -1.25 C 10.863281 -0.269531 9.363281 0.21875 7.5 0.21875 C 5.46875 0.21875 3.863281 -0.46875 2.6875 -1.84375 C 1.519531 -3.21875 0.9375 -5.101562 0.9375 -7.5 L 0.9375 -8.46875 C 0.9375 -10 1.207031 -11.34375 1.75 -12.5 C 2.289062 -13.664062 3.0625 -14.5625 4.0625 -15.1875 C 5.0625 -15.8125 6.222656 -16.125 7.546875 -16.125 C 9.378906 -16.125 10.859375 -15.628906 11.984375 -14.640625 C 13.109375 -13.660156 13.757812 -12.285156 13.9375 -10.515625 L 10.65625 -10.515625 C 10.570312 -11.535156 10.285156 -12.273438 9.796875 -12.734375 C 9.304688 -13.203125 8.554688 -13.4375 7.546875 -13.4375 C 6.453125 -13.4375 5.632812 -13.046875 5.09375 -12.265625 C 4.550781 -11.484375 4.273438 -10.269531 4.265625 -8.625 L 4.265625 -7.421875 C 4.265625 -5.703125 4.523438 -4.441406 5.046875 -3.640625 C 5.566406 -2.847656 6.382812 -2.453125 7.5 -2.453125 C 8.519531 -2.453125 9.273438 -2.679688 9.765625 -3.140625 C 10.265625 -3.609375 10.550781 -4.328125 10.625 -5.296875 Z M 13.90625 -5.296875 "/></g></g></g><g fill="#000000" fill-opacity="1"><g transform="translate(228.241741, 56.046053)"><g><path d="M 4.90625 0 L 1.625 0 L 1.625 -15.90625 L 4.90625 -15.90625 Z M 4.90625 0 "/></g></g></g><g fill="#000000" fill-opacity="1"><g transform="translate(236.508153, 56.046053)"><g><path d="M 10.40625 -3.28125 L 4.65625 -3.28125 L 3.5625 0 L 0.078125 0 L 6 -15.90625 L 9.03125 -15.90625 L 14.984375 0 L 11.5 0 Z M 5.546875 -5.9375 L 9.515625 -5.9375 L 7.515625 -11.890625 Z M 5.546875 -5.9375 "/></g></g></g><g fill="#000000" fill-opacity="1"><g transform="translate(253.30551, 56.046053)"><g><path d="M 13.390625 -13.25 L 8.515625 -13.25 L 8.515625 0 L 5.25 0 L 5.25 -13.25 L 0.4375 -13.25 L 0.4375 -15.90625 L 13.390625 -15.90625 Z M 13.390625 -13.25 "/></g></g></g><g fill="#000000" fill-opacity="1"><g transform="translate(268.89041, 56.046053)"><g><path d="M 10.984375 -6.890625 L 4.703125 -6.890625 L 4.703125 -2.640625 L 12.078125 -2.640625 L 12.078125 0 L 1.421875 0 L 1.421875 -15.90625 L 12.0625 -15.90625 L 12.0625 -13.25 L 4.703125 -13.25 L 4.703125 -9.46875 L 10.984375 -9.46875 Z M 10.984375 -6.890625 "/></g></g></g><g fill="#000000" fill-opacity="1"><g transform="translate(283.219152, 56.046053)"><g><path d="M 9.671875 -4.171875 C 9.671875 -4.796875 9.453125 -5.269531 9.015625 -5.59375 C 8.578125 -5.925781 7.789062 -6.273438 6.65625 -6.640625 C 5.519531 -7.015625 4.617188 -7.378906 3.953125 -7.734375 C 2.148438 -8.710938 1.25 -10.023438 1.25 -11.671875 C 1.25 -12.535156 1.488281 -13.300781 1.96875 -13.96875 C 2.457031 -14.644531 3.15625 -15.171875 4.0625 -15.546875 C 4.96875 -15.929688 5.984375 -16.125 7.109375 -16.125 C 8.242188 -16.125 9.253906 -15.914062 10.140625 -15.5 C 11.035156 -15.09375 11.726562 -14.515625 12.21875 -13.765625 C 12.707031 -13.015625 12.953125 -12.160156 12.953125 -11.203125 L 9.6875 -11.203125 C 9.6875 -11.929688 9.453125 -12.5 8.984375 -12.90625 C 8.523438 -13.3125 7.882812 -13.515625 7.0625 -13.515625 C 6.257812 -13.515625 5.632812 -13.34375 5.1875 -13 C 4.738281 -12.664062 4.515625 -12.222656 4.515625 -11.671875 C 4.515625 -11.148438 4.773438 -10.710938 5.296875 -10.359375 C 5.816406 -10.015625 6.585938 -9.691406 7.609375 -9.390625 C 9.472656 -8.828125 10.828125 -8.128906 11.671875 -7.296875 C 12.523438 -6.460938 12.953125 -5.429688 12.953125 -4.203125 C 12.953125 -2.816406 12.429688 -1.734375 11.390625 -0.953125 C 10.347656 -0.171875 8.945312 0.21875 7.1875 0.21875 C 5.96875 0.21875 4.851562 -0.00390625 3.84375 -0.453125 C 2.84375 -0.898438 2.078125 -1.515625 1.546875 -2.296875 C 1.015625 -3.078125 0.75 -3.976562 0.75 -5 L 4.046875 -5 C 4.046875 -3.25 5.09375 -2.375 7.1875 -2.375 C 7.96875 -2.375 8.578125 -2.53125 9.015625 -2.84375 C 9.453125 -3.164062 9.671875 -3.609375 9.671875 -4.171875 Z M 9.671875 -4.171875 "/></g></g></g><g fill="#000000" fill-opacity="1"><g transform="translate(298.716666, 56.046053)"><g><path d="M 2.03125 3.984375 L 0.375 3.125 L 0.78125 2.421875 C 1.257812 1.523438 1.507812 0.640625 1.53125 -0.234375 L 1.53125 -2.6875 L 4.203125 -2.6875 L 4.1875 -0.5 C 4.175781 0.300781 3.96875 1.113281 3.5625 1.9375 C 3.164062 2.757812 2.65625 3.441406 2.03125 3.984375 Z M 2.03125 3.984375 "/></g></g></g><g fill="#000000" fill-opacity="1"><g transform="translate(305.923544, 56.046053)"><g/></g></g><g fill="#000000" fill-opacity="1"><g transform="translate(313.239652, 56.046053)"><g><path d="M 4.703125 -5.609375 L 4.703125 0 L 1.421875 0 L 1.421875 -15.90625 L 7.625 -15.90625 C 8.820312 -15.90625 9.875 -15.6875 10.78125 -15.25 C 11.6875 -14.8125 12.382812 -14.191406 12.875 -13.390625 C 13.363281 -12.585938 13.609375 -11.671875 13.609375 -10.640625 C 13.609375 -9.078125 13.070312 -7.847656 12 -6.953125 C 10.9375 -6.054688 9.460938 -5.609375 7.578125 -5.609375 Z M 4.703125 -8.265625 L 7.625 -8.265625 C 8.488281 -8.265625 9.148438 -8.46875 9.609375 -8.875 C 10.066406 -9.28125 10.296875 -9.863281 10.296875 -10.625 C 10.296875 -11.394531 10.066406 -12.019531 9.609375 -12.5 C 9.148438 -12.988281 8.515625 -13.238281 7.703125 -13.25 L 4.703125 -13.25 Z M 4.703125 -8.265625 "/></g></g></g><g fill="#000000" fill-opacity="1"><g transform="translate(329.414399, 56.046053)"><g><path d="M 10.40625 -3.28125 L 4.65625 -3.28125 L 3.5625 0 L 0.078125 0 L 6 -15.90625 L 9.03125 -15.90625 L 14.984375 0 L 11.5 0 Z M 5.546875 -5.9375 L 9.515625 -5.9375 L 7.515625 -11.890625 Z M 5.546875 -5.9375 "/></g></g></g><path fill="#000000" d="M 57.777344 8.285156 C 52.339844 8.789062 43.710938 10.324219 39.898438 11.507812 C 39.160156 11.742188 37.769531 12.128906 36.792969 12.421875 C 29.761719 14.433594 20.632812 18.597656 14.929688 22.410156 C 9.226562 26.195312 3.699219 31.15625 1.214844 34.675781 C 0.417969 35.828125 0.625 36.269531 1.570312 35.414062 C 2.722656 34.347656 8.339844 30.746094 10.644531 29.59375 C 11.855469 29 13.066406 28.378906 13.300781 28.234375 C 15.402344 26.875 23.734375 23.5625 28.519531 22.175781 C 29.496094 21.878906 30.824219 21.464844 31.476562 21.289062 C 32.125 21.082031 33.128906 20.785156 33.691406 20.609375 C 37.472656 19.457031 45.628906 17.949219 52.160156 17.179688 C 58.988281 16.351562 61.882812 16.117188 62.148438 16.382812 C 62.445312 16.679688 61.882812 17.890625 61.46875 17.890625 C 61.320312 17.890625 60.640625 18.273438 59.933594 18.746094 C 56.976562 20.757812 54.523438 24.183594 53.460938 27.730469 C 52.988281 29.355469 52.898438 30.332031 52.988281 32.753906 C 53.164062 37.71875 54.257812 40.230469 57.628906 43.597656 C 60.167969 46.167969 61.851562 47.144531 65.132812 48 C 74.558594 50.453125 83.425781 45.34375 85.847656 36.0625 C 86.792969 32.398438 86.113281 27.613281 84.164062 24.09375 C 83.128906 22.234375 80.175781 19.191406 78.519531 18.332031 C 77.398438 17.742188 76.863281 16.855469 77.335938 16.382812 C 77.484375 16.234375 78.34375 16.234375 79.347656 16.414062 C 80.320312 16.558594 82.066406 16.707031 83.1875 16.707031 C 84.339844 16.738281 85.847656 16.855469 86.585938 17.003906 C 87.324219 17.179688 89.1875 17.417969 90.722656 17.59375 C 94.003906 17.949219 97.699219 18.539062 100.621094 19.191406 C 101.773438 19.457031 103.3125 19.8125 104.109375 19.957031 C 104.878906 20.105469 105.734375 20.371094 106.03125 20.492188 C 106.296875 20.636719 107.035156 20.875 107.683594 20.964844 C 108.304688 21.082031 109.042969 21.289062 109.3125 21.40625 C 109.578125 21.554688 110.582031 21.878906 111.554688 22.175781 C 114.039062 22.914062 116.757812 23.769531 117.464844 24.066406 C 117.792969 24.183594 118.558594 24.539062 119.179688 24.804688 C 119.800781 25.070312 120.421875 25.277344 120.570312 25.277344 C 120.835938 25.277344 124.113281 26.695312 125.296875 27.316406 C 132.210938 30.949219 136.613281 33.609375 138.625 35.355469 C 141.046875 37.453125 140.398438 36.121094 137.207031 32.488281 C 132.359375 26.902344 126.832031 22.796875 118.738281 18.6875 C 113.300781 15.910156 111.554688 15.171875 106.53125 13.488281 C 98.730469 10.855469 96.957031 10.445312 87.324219 8.90625 C 80.617188 7.8125 66.195312 7.546875 57.777344 8.285156 Z M 78.84375 22.027344 C 79.199219 22.5 79.496094 23.03125 79.496094 23.210938 C 79.496094 23.355469 79.820312 23.503906 80.203125 23.503906 C 81.386719 23.503906 82.449219 24.035156 82.449219 24.628906 C 82.449219 24.921875 82.035156 25.542969 81.5625 26.015625 C 80.734375 26.8125 80.675781 26.992188 80.855469 28.292969 C 81.089844 29.945312 80.558594 30.390625 79.347656 29.59375 C 78.429688 29 77.632812 29 76.511719 29.59375 C 75.089844 30.300781 74.648438 29.976562 74.886719 28.351562 C 75.0625 27.078125 74.972656 26.902344 74 25.808594 C 72.757812 24.421875 72.964844 23.917969 74.945312 23.621094 C 76.066406 23.476562 76.332031 23.269531 76.894531 22.292969 C 77.25 21.644531 77.691406 21.140625 77.871094 21.140625 C 78.046875 21.140625 78.488281 21.523438 78.84375 22.027344 Z M 78.84375 22.027344 " fill-opacity="1" fill-rule="nonzero"/><path fill="#000000" d="M 13.242188 33.167969 C 13.777344 34.496094 16.761719 38.457031 18.945312 40.761719 C 29.320312 51.695312 42.910156 58.019531 60.878906 60.292969 C 68.976562 61.300781 79.140625 60.621094 88.359375 58.402344 C 91.667969 57.636719 97.578125 55.65625 99.5 54.710938 C 100.355469 54.296875 101.183594 53.941406 101.363281 53.941406 C 101.507812 53.941406 102.308594 53.558594 103.132812 53.054688 C 103.960938 52.582031 104.730469 52.167969 104.820312 52.167969 C 105.171875 52.167969 110.996094 48.503906 112.738281 47.175781 C 117.199219 43.777344 121.398438 39.433594 124.085938 35.414062 C 126.007812 32.488281 125.886719 32.398438 123.199219 34.703125 C 115.695312 41.203125 104.257812 46.820312 92.941406 49.507812 C 86.054688 51.132812 83.867188 51.519531 77.929688 52.019531 C 65.132812 53.171875 53.550781 51.992188 41.226562 48.265625 C 38.007812 47.292969 37.355469 47.085938 33.839844 45.667969 C 26.421875 42.652344 17.027344 36.773438 13.921875 33.167969 C 13.65625 32.902344 13.363281 32.664062 13.242188 32.664062 C 13.125 32.664062 13.125 32.902344 13.242188 33.167969 Z M 13.242188 33.167969 " fill-opacity="1" fill-rule="nonzero"/></svg>