<svg xmlns="http://www.w3.org/2000/svg" xmlns:xlink="http://www.w3.org/1999/xlink" width="400" zoomAndPan="magnify" viewBox="0 0 300 74.999997" height="100" preserveAspectRatio="xMidYMid meet" version="1.0"><defs><g/><clipPath id="c8dc730f3c"><path d="M 0 5 L 92.25 5 L 92.25 71 L 0 71 Z M 0 5 " clip-rule="nonzero"/></clipPath></defs><g clip-path="url(#c8dc730f3c)"><path fill="#000000" d="M 38.015625 29.351562 C 33.566406 33.828125 33.566406 41.117188 38.015625 45.597656 C 42.464844 50.078125 49.703125 50.078125 54.148438 45.597656 C 58.597656 41.117188 58.597656 33.828125 54.148438 29.347656 C 49.703125 24.867188 42.464844 24.871094 38.015625 29.351562 Z M 65.144531 61.222656 C 65.808594 60.554688 66.429688 59.859375 67.019531 59.144531 C 63.851562 60.640625 60.414062 61.492188 56.890625 61.574219 C 50.714844 61.726562 41.328125 59.65625 31.6875 48.984375 C 31.632812 48.929688 31.566406 48.882812 31.507812 48.824219 C 25.488281 42.761719 25.488281 32.902344 31.507812 26.84375 C 34.335938 23.996094 37.996094 22.5 41.707031 22.332031 C 37.570312 19.863281 33.265625 18.597656 28.941406 18.695312 C 23.554688 18.816406 18.371094 21.066406 14.316406 24.929688 L 13.5 25.75 C 13.078125 26.191406 12.65625 26.632812 12.261719 27.109375 L 12.199219 27.058594 L 0.00390625 39.339844 L 21.734375 61.222656 C 33.703125 73.277344 53.175781 73.273438 65.144531 61.222656 Z M 70.523438 14.082031 L 92.253906 35.964844 L 80.058594 48.246094 L 79.996094 48.195312 C 79.601562 48.671875 79.183594 49.113281 78.757812 49.554688 L 77.945312 50.375 C 73.886719 54.238281 68.703125 56.488281 63.316406 56.609375 C 58.992188 56.707031 54.6875 55.441406 50.550781 52.972656 C 54.261719 52.804688 57.925781 51.308594 60.75 48.464844 C 66.769531 42.402344 66.769531 32.542969 60.753906 26.480469 C 60.695312 26.421875 60.628906 26.375 60.570312 26.320312 C 50.929688 15.648438 41.542969 13.578125 35.367188 13.730469 C 31.84375 13.8125 28.40625 14.664062 25.238281 16.160156 C 25.828125 15.445312 26.449219 14.75 27.113281 14.082031 C 39.082031 2.03125 58.554688 2.027344 70.523438 14.082031 " fill-opacity="1" fill-rule="nonzero"/></g><g fill="#000000" fill-opacity="1"><g transform="translate(105.979509, 30.413825)"><g><path d="M 8.6875 0 L 5.25 -7.796875 L 4.5 -7.40625 L 4.5 0 L 1.203125 0 L 1.203125 -20.828125 L 7.640625 -20.828125 C 8.378906 -20.828125 9.015625 -20.550781 9.546875 -20 C 10.078125 -19.457031 10.34375 -18.785156 10.34375 -17.984375 L 10.34375 -10.40625 L 8.15625 -9.296875 L 12.28125 0 Z M 7.046875 -12.4375 L 7.046875 -17.6875 L 4.5 -17.6875 L 4.5 -11.09375 Z M 7.046875 -12.4375 "/></g></g></g><g fill="#000000" fill-opacity="1"><g transform="translate(119.848678, 30.413825)"><g><path d="M 1.203125 0 L 1.203125 -20.828125 L 4.5 -20.828125 L 4.5 0 Z M 1.203125 0 "/></g></g></g><g fill="#000000" fill-opacity="1"><g transform="translate(127.876988, 30.413825)"><g><path d="M 1.203125 -17.984375 C 1.203125 -18.796875 1.460938 -19.472656 1.984375 -20.015625 C 2.515625 -20.554688 3.148438 -20.828125 3.890625 -20.828125 L 7.640625 -20.828125 C 8.378906 -20.828125 9.015625 -20.550781 9.546875 -20 C 10.078125 -19.457031 10.34375 -18.785156 10.34375 -17.984375 L 10.34375 -17.078125 L 7.046875 -15.4375 L 7.046875 -17.6875 L 4.5 -17.6875 L 4.5 -12.140625 L 10.34375 -15.140625 L 10.34375 -2.84375 C 10.34375 -2.0625 10.078125 -1.390625 9.546875 -0.828125 C 9.015625 -0.273438 8.378906 0 7.640625 0 L 3.890625 0 C 3.148438 0 2.515625 -0.269531 1.984375 -0.8125 C 1.460938 -1.363281 1.203125 -2.039062 1.203125 -2.84375 L 1.203125 -4.796875 L 4.5 -6.4375 L 4.5 -3.140625 L 7.046875 -3.140625 L 7.046875 -9.734375 L 1.203125 -6.75 Z M 1.203125 -17.984375 "/></g></g></g><g fill="#000000" fill-opacity="1"><g transform="translate(141.746156, 30.413825)"><g><path d="M 12.734375 0 L 9.234375 0 L 5.90625 -8.515625 L 4.5 -5.609375 L 4.5 0 L 1.203125 0 L 1.203125 -20.828125 L 4.5 -20.828125 L 4.5 -12.953125 L 8.03125 -20.828125 L 11.625 -20.828125 L 7.703125 -12.375 Z M 12.734375 0 "/></g></g></g><g fill="#000000" fill-opacity="1"><g transform="translate(156.214388, 30.413825)"><g/></g></g><g fill="#000000" fill-opacity="1"><g transform="translate(164.242698, 30.413825)"><g><path d="M 10.34375 -17.984375 L 10.34375 -2.84375 C 10.34375 -2.039062 10.078125 -1.363281 9.546875 -0.8125 C 9.015625 -0.269531 8.378906 0 7.640625 0 L 3.890625 0 C 3.148438 0 2.515625 -0.273438 1.984375 -0.828125 C 1.460938 -1.390625 1.203125 -2.0625 1.203125 -2.84375 L 1.203125 -17.984375 C 1.203125 -18.785156 1.460938 -19.457031 1.984375 -20 C 2.515625 -20.550781 3.148438 -20.828125 3.890625 -20.828125 L 7.640625 -20.828125 C 8.378906 -20.828125 9.015625 -20.550781 9.546875 -20 C 10.078125 -19.457031 10.34375 -18.785156 10.34375 -17.984375 Z M 7.046875 -3.140625 L 7.046875 -17.6875 L 4.5 -17.6875 L 4.5 -3.140625 Z M 7.046875 -3.140625 "/></g></g></g><g fill="#000000" fill-opacity="1"><g transform="translate(178.111866, 30.413825)"><g><path d="M 7.046875 -12.140625 L 7.046875 -17.6875 L 4.5 -17.6875 L 4.5 -10.78125 Z M 4.5 0 L 1.203125 0 L 1.203125 -20.828125 L 7.640625 -20.828125 C 8.378906 -20.828125 9.015625 -20.550781 9.546875 -20 C 10.078125 -19.457031 10.34375 -18.785156 10.34375 -17.984375 L 10.34375 -10.09375 L 4.5 -7.109375 Z M 4.5 0 "/></g></g></g><g fill="#000000" fill-opacity="1"><g transform="translate(191.681508, 30.413825)"><g><path d="M 3.75 0 L 3.75 -17.6875 L 0.453125 -17.6875 L 0.453125 -20.828125 L 10.34375 -20.828125 L 10.34375 -17.6875 L 7.046875 -17.6875 L 7.046875 0 Z M 3.75 0 "/></g></g></g><g fill="#000000" fill-opacity="1"><g transform="translate(204.801855, 30.413825)"><g><path d="M 10.34375 -17.984375 L 10.34375 -2.84375 C 10.34375 -2.039062 10.078125 -1.363281 9.546875 -0.8125 C 9.015625 -0.269531 8.378906 0 7.640625 0 L 3.890625 0 C 3.148438 0 2.515625 -0.273438 1.984375 -0.828125 C 1.460938 -1.390625 1.203125 -2.0625 1.203125 -2.84375 L 1.203125 -17.984375 C 1.203125 -18.785156 1.460938 -19.457031 1.984375 -20 C 2.515625 -20.550781 3.148438 -20.828125 3.890625 -20.828125 L 7.640625 -20.828125 C 8.378906 -20.828125 9.015625 -20.550781 9.546875 -20 C 10.078125 -19.457031 10.34375 -18.785156 10.34375 -17.984375 Z M 7.046875 -3.140625 L 7.046875 -17.6875 L 4.5 -17.6875 L 4.5 -3.140625 Z M 7.046875 -3.140625 "/></g></g></g><g fill="#000000" fill-opacity="1"><g transform="translate(218.671028, 30.413825)"><g><path d="M 8.6875 -19.296875 C 8.8125 -19.554688 8.984375 -19.796875 9.203125 -20.015625 C 9.722656 -20.554688 10.351562 -20.828125 11.09375 -20.828125 L 13.484375 -20.828125 C 14.222656 -20.828125 14.859375 -20.546875 15.390625 -19.984375 C 15.921875 -19.429688 16.1875 -18.765625 16.1875 -17.984375 L 16.1875 0 L 12.890625 0 L 12.890625 -17.6875 L 10.34375 -17.6875 L 10.34375 0 L 7.046875 0 L 7.046875 -17.6875 L 4.5 -17.6875 L 4.5 0 L 1.203125 0 L 1.203125 -17.984375 C 1.203125 -18.785156 1.460938 -19.457031 1.984375 -20 C 2.515625 -20.550781 3.148438 -20.828125 3.890625 -20.828125 L 6.296875 -20.828125 C 7.035156 -20.828125 7.675781 -20.546875 8.21875 -19.984375 C 8.414062 -19.765625 8.570312 -19.535156 8.6875 -19.296875 Z M 8.6875 -19.296875 "/></g></g></g><g fill="#000000" fill-opacity="1"><g transform="translate(238.381048, 30.413825)"><g><path d="M 9.140625 -17.6875 L 4.5 -17.6875 L 4.5 -12.078125 L 9.140625 -14.46875 L 9.140625 -10.78125 L 4.5 -8.390625 L 4.5 -3.140625 L 9.140625 -3.140625 L 9.140625 0 L 1.203125 0 L 1.203125 -17.984375 C 1.203125 -18.785156 1.460938 -19.457031 1.984375 -20 C 2.515625 -20.550781 3.148438 -20.828125 3.890625 -20.828125 L 9.140625 -20.828125 Z M 9.140625 -17.6875 "/></g></g></g><g fill="#000000" fill-opacity="1"><g transform="translate(250.752568, 30.413825)"><g><path d="M 3.75 0 L 3.75 -17.6875 L 0.453125 -17.6875 L 0.453125 -20.828125 L 10.34375 -20.828125 L 10.34375 -17.6875 L 7.046875 -17.6875 L 7.046875 0 Z M 3.75 0 "/></g></g></g><g fill="#000000" fill-opacity="1"><g transform="translate(263.872921, 30.413825)"><g><path d="M 8.6875 0 L 5.25 -7.796875 L 4.5 -7.40625 L 4.5 0 L 1.203125 0 L 1.203125 -20.828125 L 7.640625 -20.828125 C 8.378906 -20.828125 9.015625 -20.550781 9.546875 -20 C 10.078125 -19.457031 10.34375 -18.785156 10.34375 -17.984375 L 10.34375 -10.40625 L 8.15625 -9.296875 L 12.28125 0 Z M 7.046875 -12.4375 L 7.046875 -17.6875 L 4.5 -17.6875 L 4.5 -11.09375 Z M 7.046875 -12.4375 "/></g></g></g><g fill="#000000" fill-opacity="1"><g transform="translate(277.742083, 30.413825)"><g><path d="M 1.203125 0 L 1.203125 -20.828125 L 4.5 -20.828125 L 4.5 0 Z M 1.203125 0 "/></g></g></g><g fill="#000000" fill-opacity="1"><g transform="translate(285.770388, 30.413825)"><g><path d="M 7.046875 -5.6875 L 10.34375 -7.34375 L 10.34375 -2.84375 C 10.34375 -2.039062 10.078125 -1.363281 9.546875 -0.8125 C 9.015625 -0.269531 8.378906 0 7.640625 0 L 3.890625 0 C 3.148438 0 2.515625 -0.273438 1.984375 -0.828125 C 1.460938 -1.390625 1.203125 -2.0625 1.203125 -2.84375 L 1.203125 -17.984375 C 1.203125 -18.785156 1.460938 -19.457031 1.984375 -20 C 2.515625 -20.550781 3.148438 -20.828125 3.890625 -20.828125 L 7.640625 -20.828125 C 8.378906 -20.828125 9.015625 -20.550781 9.546875 -20 C 10.078125 -19.457031 10.34375 -18.785156 10.34375 -17.984375 L 10.34375 -16.1875 L 7.046875 -14.53125 L 7.046875 -17.6875 L 4.5 -17.6875 L 4.5 -3.140625 L 7.046875 -3.140625 Z M 7.046875 -5.6875 "/></g></g></g><g fill="#000000" fill-opacity="1"><g transform="translate(299.338869, 30.413825)"><g/></g></g><g fill="#000000" fill-opacity="1"><g transform="translate(105.979509, 61.163823)"><g><path d="M 1.203125 0 L 1.203125 -17.984375 C 1.203125 -18.785156 1.460938 -19.457031 1.984375 -20 C 2.515625 -20.550781 3.148438 -20.828125 3.890625 -20.828125 L 7.640625 -20.828125 C 8.378906 -20.828125 9.015625 -20.550781 9.546875 -20 C 10.078125 -19.457031 10.34375 -18.785156 10.34375 -17.984375 L 10.34375 0 L 7.046875 0 L 7.046875 -8.84375 L 4.5 -7.484375 L 4.5 0 Z M 4.5 -11.171875 L 7.046875 -12.53125 L 7.046875 -17.6875 L 4.5 -17.6875 Z M 4.5 -11.171875 "/></g></g></g><g fill="#000000" fill-opacity="1"><g transform="translate(119.848678, 61.163823)"><g><path d="M 1.203125 -17.984375 C 1.203125 -18.796875 1.460938 -19.472656 1.984375 -20.015625 C 2.515625 -20.554688 3.148438 -20.828125 3.890625 -20.828125 L 7.640625 -20.828125 C 8.378906 -20.828125 9.015625 -20.550781 9.546875 -20 C 10.078125 -19.457031 10.34375 -18.785156 10.34375 -17.984375 L 10.34375 -17.078125 L 7.046875 -15.4375 L 7.046875 -17.6875 L 4.5 -17.6875 L 4.5 -12.140625 L 10.34375 -15.140625 L 10.34375 -2.84375 C 10.34375 -2.0625 10.078125 -1.390625 9.546875 -0.828125 C 9.015625 -0.273438 8.378906 0 7.640625 0 L 3.890625 0 C 3.148438 0 2.515625 -0.269531 1.984375 -0.8125 C 1.460938 -1.363281 1.203125 -2.039062 1.203125 -2.84375 L 1.203125 -4.796875 L 4.5 -6.4375 L 4.5 -3.140625 L 7.046875 -3.140625 L 7.046875 -9.734375 L 1.203125 -6.75 Z M 1.203125 -17.984375 "/></g></g></g><g fill="#000000" fill-opacity="1"><g transform="translate(133.717846, 61.163823)"><g><path d="M 1.203125 -17.984375 C 1.203125 -18.796875 1.460938 -19.472656 1.984375 -20.015625 C 2.515625 -20.554688 3.148438 -20.828125 3.890625 -20.828125 L 7.640625 -20.828125 C 8.378906 -20.828125 9.015625 -20.550781 9.546875 -20 C 10.078125 -19.457031 10.34375 -18.785156 10.34375 -17.984375 L 10.34375 -17.078125 L 7.046875 -15.4375 L 7.046875 -17.6875 L 4.5 -17.6875 L 4.5 -12.140625 L 10.34375 -15.140625 L 10.34375 -2.84375 C 10.34375 -2.0625 10.078125 -1.390625 9.546875 -0.828125 C 9.015625 -0.273438 8.378906 0 7.640625 0 L 3.890625 0 C 3.148438 0 2.515625 -0.269531 1.984375 -0.8125 C 1.460938 -1.363281 1.203125 -2.039062 1.203125 -2.84375 L 1.203125 -4.796875 L 4.5 -6.4375 L 4.5 -3.140625 L 7.046875 -3.140625 L 7.046875 -9.734375 L 1.203125 -6.75 Z M 1.203125 -17.984375 "/></g></g></g><g fill="#000000" fill-opacity="1"><g transform="translate(147.587014, 61.163823)"><g><path d="M 10.34375 -17.984375 L 10.34375 -2.84375 C 10.34375 -2.039062 10.078125 -1.363281 9.546875 -0.8125 C 9.015625 -0.269531 8.378906 0 7.640625 0 L 3.890625 0 C 3.148438 0 2.515625 -0.273438 1.984375 -0.828125 C 1.460938 -1.390625 1.203125 -2.0625 1.203125 -2.84375 L 1.203125 -17.984375 C 1.203125 -18.785156 1.460938 -19.457031 1.984375 -20 C 2.515625 -20.550781 3.148438 -20.828125 3.890625 -20.828125 L 7.640625 -20.828125 C 8.378906 -20.828125 9.015625 -20.550781 9.546875 -20 C 10.078125 -19.457031 10.34375 -18.785156 10.34375 -17.984375 Z M 7.046875 -3.140625 L 7.046875 -17.6875 L 4.5 -17.6875 L 4.5 -3.140625 Z M 7.046875 -3.140625 "/></g></g></g><g fill="#000000" fill-opacity="1"><g transform="translate(161.456183, 61.163823)"><g><path d="M 7.046875 -5.6875 L 10.34375 -7.34375 L 10.34375 -2.84375 C 10.34375 -2.039062 10.078125 -1.363281 9.546875 -0.8125 C 9.015625 -0.269531 8.378906 0 7.640625 0 L 3.890625 0 C 3.148438 0 2.515625 -0.273438 1.984375 -0.828125 C 1.460938 -1.390625 1.203125 -2.0625 1.203125 -2.84375 L 1.203125 -17.984375 C 1.203125 -18.785156 1.460938 -19.457031 1.984375 -20 C 2.515625 -20.550781 3.148438 -20.828125 3.890625 -20.828125 L 7.640625 -20.828125 C 8.378906 -20.828125 9.015625 -20.550781 9.546875 -20 C 10.078125 -19.457031 10.34375 -18.785156 10.34375 -17.984375 L 10.34375 -16.1875 L 7.046875 -14.53125 L 7.046875 -17.6875 L 4.5 -17.6875 L 4.5 -3.140625 L 7.046875 -3.140625 Z M 7.046875 -5.6875 "/></g></g></g><g fill="#000000" fill-opacity="1"><g transform="translate(175.025824, 61.163823)"><g><path d="M 1.203125 0 L 1.203125 -20.828125 L 4.5 -20.828125 L 4.5 0 Z M 1.203125 0 "/></g></g></g><g fill="#000000" fill-opacity="1"><g transform="translate(183.054135, 61.163823)"><g><path d="M 1.203125 0 L 1.203125 -17.984375 C 1.203125 -18.785156 1.460938 -19.457031 1.984375 -20 C 2.515625 -20.550781 3.148438 -20.828125 3.890625 -20.828125 L 7.640625 -20.828125 C 8.378906 -20.828125 9.015625 -20.550781 9.546875 -20 C 10.078125 -19.457031 10.34375 -18.785156 10.34375 -17.984375 L 10.34375 0 L 7.046875 0 L 7.046875 -8.84375 L 4.5 -7.484375 L 4.5 0 Z M 4.5 -11.171875 L 7.046875 -12.53125 L 7.046875 -17.6875 L 4.5 -17.6875 Z M 4.5 -11.171875 "/></g></g></g><g fill="#000000" fill-opacity="1"><g transform="translate(196.923303, 61.163823)"><g><path d="M 3.75 0 L 3.75 -17.6875 L 0.453125 -17.6875 L 0.453125 -20.828125 L 10.34375 -20.828125 L 10.34375 -17.6875 L 7.046875 -17.6875 L 7.046875 0 Z M 3.75 0 "/></g></g></g><g fill="#000000" fill-opacity="1"><g transform="translate(210.04365, 61.163823)"><g><path d="M 9.140625 -17.6875 L 4.5 -17.6875 L 4.5 -12.078125 L 9.140625 -14.46875 L 9.140625 -10.78125 L 4.5 -8.390625 L 4.5 -3.140625 L 9.140625 -3.140625 L 9.140625 0 L 1.203125 0 L 1.203125 -17.984375 C 1.203125 -18.785156 1.460938 -19.457031 1.984375 -20 C 2.515625 -20.550781 3.148438 -20.828125 3.890625 -20.828125 L 9.140625 -20.828125 Z M 9.140625 -17.6875 "/></g></g></g><g fill="#000000" fill-opacity="1"><g transform="translate(222.41517, 61.163823)"><g><path d="M 1.203125 -17.984375 C 1.203125 -18.796875 1.460938 -19.472656 1.984375 -20.015625 C 2.515625 -20.554688 3.148438 -20.828125 3.890625 -20.828125 L 7.640625 -20.828125 C 8.378906 -20.828125 9.015625 -20.550781 9.546875 -20 C 10.078125 -19.457031 10.34375 -18.785156 10.34375 -17.984375 L 10.34375 -17.078125 L 7.046875 -15.4375 L 7.046875 -17.6875 L 4.5 -17.6875 L 4.5 -12.140625 L 10.34375 -15.140625 L 10.34375 -2.84375 C 10.34375 -2.0625 10.078125 -1.390625 9.546875 -0.828125 C 9.015625 -0.273438 8.378906 0 7.640625 0 L 3.890625 0 C 3.148438 0 2.515625 -0.269531 1.984375 -0.8125 C 1.460938 -1.363281 1.203125 -2.039062 1.203125 -2.84375 L 1.203125 -4.796875 L 4.5 -6.4375 L 4.5 -3.140625 L 7.046875 -3.140625 L 7.046875 -9.734375 L 1.203125 -6.75 Z M 1.203125 -17.984375 "/></g></g></g></svg>